<svg width="25" height="25" viewBox="0 0 25 25" fill="none" xmlns="http://www.w3.org/2000/svg">
    <path d="M12.5723 0.931152C5.94227 0.931152 0.572267 6.30115 0.572267 12.9311C0.570906 15.4503 1.36284 17.9059 2.83573 19.9496C4.30861 21.9932 6.38764 23.5212 8.77787 24.3167C9.37787 24.4211 9.60227 24.0611 9.60227 23.7455C9.60227 23.4611 9.58667 22.5167 9.58667 21.5111C6.57227 22.0667 5.79227 20.7767 5.55227 20.1011C5.41667 19.7555 4.83227 18.6911 4.32227 18.4055C3.90227 18.1811 3.30227 17.6255 4.30667 17.6111C5.25227 17.5955 5.92667 18.4811 6.15227 18.8411C7.23227 20.6555 8.95787 20.1455 9.64667 19.8311C9.75227 19.0511 10.0667 18.5267 10.4123 18.2267C7.74227 17.9267 4.95227 16.8911 4.95227 12.3011C4.95227 10.9956 5.41667 9.91675 6.18227 9.07555C6.06227 8.77555 5.64227 7.54555 6.30227 5.89555C6.30227 5.89555 7.30667 5.58115 9.60227 7.12675C10.5791 6.85562 11.5885 6.71916 12.6023 6.72115C13.6223 6.72115 14.6423 6.85555 15.6023 7.12555C17.8967 5.56555 18.9023 5.89675 18.9023 5.89675C19.5623 7.54675 19.1423 8.77675 19.0223 9.07675C19.7867 9.91675 20.2523 10.9812 20.2523 12.3011C20.2523 16.9067 17.4479 17.9267 14.7779 18.2267C15.2123 18.6011 15.5879 19.3211 15.5879 20.4467C15.5879 22.0511 15.5723 23.3411 15.5723 23.7467C15.5723 24.0611 15.7979 24.4355 16.3979 24.3155C18.7799 23.5113 20.8498 21.9803 22.3161 19.9381C23.7825 17.8959 24.5716 15.4453 24.5723 12.9311C24.5723 6.30115 19.2023 0.931152 12.5723 0.931152Z" fill="#D9D9D9"/>
</svg>
