<svg width="24" height="24" viewBox="0 0 24 24" fill="none" xmlns="http://www.w3.org/2000/svg">
    <path d="M17.3032 2.46311C17.5844 2.7444 17.7423 3.12586 17.7423 3.52361C17.7423 3.92135 17.5844 4.30281 17.3032 4.58411L9.87816 12.0091L17.3032 19.4341C17.5764 19.717 17.7276 20.0959 17.7242 20.4892C17.7207 20.8825 17.563 21.2587 17.2849 21.5368C17.0068 21.8149 16.6306 21.9727 16.2373 21.9761C15.844 21.9795 15.4651 21.8283 15.1822 21.5551L6.69666 13.0696C6.41545 12.7883 6.25748 12.4069 6.25748 12.0091C6.25748 11.6114 6.41545 11.2299 6.69666 10.9486L15.1822 2.46311C15.4634 2.1819 15.8449 2.02393 16.2427 2.02393C16.6404 2.02393 17.0219 2.1819 17.3032 2.46311Z" fill="#C4C4C4"/>
</svg>
